<svg width="659" height="226" viewBox="0 0 659 226" fill="none" xmlns="http://www.w3.org/2000/svg">
<rect width="659" height="178" rx="79" fill="#3B82F6"/>
<rect x="8" y="10" width="641" height="160" rx="78" fill="white"/>
<path d="M346.744 209.748C336.242 218.905 320.6 218.941 310.047 209.833L277.986 182.161C258.341 165.205 270.313 132.971 296.256 132.968L360.06 132.961C385.942 132.959 397.988 165.063 378.486 182.069L346.744 209.748Z" fill="#3B82F6"/>
<path d="M343.748 206.278C335.877 215.141 322.063 215.244 314.05 206.501L270.361 158.827C260.964 148.573 264.634 132.101 277.494 126.818L318.322 110.045C323.068 108.095 328.382 108.045 333.166 109.904L377.846 127.264C390.842 132.313 394.823 148.772 385.568 159.191L343.748 206.278Z" fill="white"/>
</svg>
