<svg width="347" height="142" viewBox="0 0 347 142" fill="none" xmlns="http://www.w3.org/2000/svg">
<rect y="12.9091" width="347" height="129.091" rx="53" fill="#3B82F6"/>
<path d="M69.0599 106.992C68.2919 106.992 67.6519 106.576 67.1399 105.744C66.7559 105.36 66.4359 104.784 66.1799 104.016C65.9239 103.312 65.9559 102.064 66.2759 100.272C66.6599 98.416 67.4599 95.664 68.6759 92.016C69.3159 89.584 69.8279 87.824 70.2119 86.736C70.5959 85.584 70.7879 84.752 70.7879 84.24C70.7879 83.536 70.8519 82.96 70.9799 82.512C71.1719 82 71.2679 81.52 71.2679 81.072C71.6519 81.072 72.0359 80.72 72.4199 80.016C72.8039 79.312 73.1239 78.352 73.3799 77.136C73.6359 76.048 73.8599 75.184 74.0519 74.544C74.3079 73.84 74.4359 73.36 74.4359 73.104C74.7559 72.592 75.0759 71.792 75.3959 70.704C75.7799 69.616 76.3559 68.304 77.1239 66.768C77.6359 64.848 78.2119 62.864 78.8519 60.816C79.4919 58.704 80.1319 56.752 80.7719 54.96C81.4759 53.104 82.0519 51.664 82.4999 50.64C83.2039 48.656 83.7479 47.28 84.1319 46.512C84.5159 45.68 84.5159 45.136 84.1319 44.88C83.6839 44.56 83.5239 43.888 83.6519 42.864C83.8439 41.84 84.5159 40.848 85.6679 39.888C86.3719 39.056 87.1079 38.48 87.8759 38.16C88.6439 37.776 89.5719 37.584 90.6599 37.584C91.7479 37.584 93.0599 37.648 94.5959 37.776C95.7479 37.84 96.9639 37.872 98.2439 37.872C99.5879 37.872 100.42 37.872 100.74 37.872C101.316 38.128 102.02 38.416 102.852 38.736C103.684 38.992 104.42 39.28 105.06 39.6C105.764 39.856 106.116 40.08 106.116 40.272C106.116 40.656 106.244 40.912 106.5 41.04C106.82 41.104 107.14 41.168 107.46 41.232C107.908 41.232 108.58 41.616 109.476 42.384C110.372 43.088 111.268 43.984 112.164 45.072C113.124 46.096 113.828 47.152 114.276 48.24C114.788 49.328 115.204 50.352 115.524 51.312C115.844 52.272 115.844 53.648 115.524 55.44C115.46 56.4 115.3 57.36 115.044 58.32C114.852 59.28 114.628 59.92 114.372 60.24C113.988 60.496 113.636 60.816 113.316 61.2C112.996 61.584 112.836 61.936 112.836 62.256C112.836 62.512 112.58 63.056 112.068 63.888C111.62 64.72 111.012 65.712 110.244 66.864C109.54 67.952 108.74 69.04 107.844 70.128C107.012 71.216 106.212 72.112 105.444 72.816C104.612 73.84 103.62 74.8 102.468 75.696C101.38 76.592 100.388 77.328 99.4919 77.904C97.8279 78.672 95.9719 79.44 93.9239 80.208C91.8759 80.912 89.8919 81.488 87.9719 81.936C86.0519 82.384 84.4839 82.576 83.2679 82.512C81.4119 82.768 80.1959 83.024 79.6199 83.28C79.1079 83.472 78.7239 84.016 78.4679 84.912C78.1479 85.744 77.8279 86.608 77.5079 87.504C77.2519 88.4 77.1239 89.008 77.1239 89.328C76.9959 89.584 76.7079 90.352 76.2599 91.632C75.8119 92.848 75.2999 94.288 74.7239 95.952C74.2119 97.552 73.6999 99.152 73.1879 100.752C72.7399 102.352 72.3879 103.696 72.1319 104.784C71.8759 105.68 71.4279 106.256 70.7879 106.512C70.2119 106.832 69.6359 106.992 69.0599 106.992ZM81.8279 76.176C82.0839 76.432 82.9799 76.464 84.5159 76.272C86.1159 76.08 87.9079 75.6 89.8919 74.832C91.1719 74.384 92.4519 73.84 93.7319 73.2C95.0759 72.56 96.3559 71.856 97.5719 71.088C98.2119 70.64 99.0439 69.968 100.068 69.072C101.092 68.112 102.244 66.832 103.524 65.232C103.716 64.912 104.036 64.304 104.484 63.408C104.996 62.448 105.444 61.552 105.828 60.72C106.404 59.824 106.98 58.512 107.556 56.784C108.132 54.992 108.26 53.52 107.94 52.368C107.62 50.704 106.852 49.232 105.636 47.952C104.484 46.672 103.076 45.776 101.412 45.264C100.004 45.008 98.8199 44.88 97.8599 44.88C96.9639 44.816 95.9719 44.88 94.8839 45.072C93.8599 45.392 93.1239 45.84 92.6759 46.416C92.2279 46.992 91.6199 48.208 90.8519 50.064C90.4039 50.96 89.7639 52.272 88.9319 54C88.0999 55.664 87.3959 57.296 86.8199 58.896C85.6679 63.12 84.5799 66.48 83.5559 68.976C82.5959 71.472 81.9879 73.072 81.7319 73.776C81.7959 74.48 81.7639 74.992 81.6359 75.312C81.5079 75.568 81.5719 75.856 81.8279 76.176ZM106.556 99.6C106.044 99.088 105.66 98.384 105.404 97.488C105.212 96.592 105.148 95.728 105.212 94.896C105.276 94 105.436 93.296 105.692 92.784C105.692 92.272 105.756 91.888 105.884 91.632C106.076 91.312 106.14 91.024 106.076 90.768C106.012 90.512 106.076 90.064 106.268 89.424C106.46 88.784 106.652 88.176 106.844 87.6C107.292 86.576 107.772 85.296 108.284 83.76C108.86 82.224 109.404 80.688 109.916 79.152C110.428 77.616 110.844 76.304 111.164 75.216C111.548 74.064 111.772 73.36 111.836 73.104C111.836 72.336 112.348 71.92 113.372 71.856C114.14 71.6 114.876 71.76 115.58 72.336C116.284 72.848 116.956 73.616 117.596 74.64C118.108 75.152 118.3 75.888 118.172 76.848C118.044 77.744 117.628 78.96 116.924 80.496C116.668 81.008 116.348 81.808 115.964 82.896C115.644 83.92 115.42 84.816 115.292 85.584C115.036 86.096 114.716 86.832 114.332 87.792C114.012 88.688 113.724 89.552 113.468 90.384C113.34 90.704 113.212 91.248 113.084 92.016C112.956 92.72 112.796 93.456 112.604 94.224C112.412 94.992 112.156 95.632 111.836 96.144C111.26 98.768 110.492 100.304 109.532 100.752C108.636 101.2 107.644 100.816 106.556 99.6ZM116.348 60.912C115.9 60.464 115.516 59.92 115.196 59.28C114.876 58.576 114.684 57.968 114.62 57.456C114.62 56.88 114.684 56.56 114.812 56.496C115.388 56.112 115.964 55.376 116.54 54.288C117.18 53.2 117.596 52.24 117.788 51.408C117.852 51.152 117.98 50.896 118.172 50.64C118.364 50.32 118.588 50.128 118.844 50.064C119.612 49.552 120.508 49.552 121.532 50.064C122.62 50.512 123.484 51.248 124.124 52.272C124.7 53.488 124.86 54.608 124.604 55.632C124.348 56.656 123.644 57.872 122.492 59.28C121.532 60.56 120.476 61.328 119.324 61.584C118.236 61.776 117.244 61.552 116.348 60.912ZM150.083 98.544C148.739 98.544 147.619 98.288 146.723 97.776C145.827 97.2 145.091 96.24 144.515 94.896C144.259 93.936 144.099 92.912 144.035 91.824C143.971 90.672 143.971 89.584 144.035 88.56C144.099 87.536 144.195 86.768 144.323 86.256C144.451 86.064 144.483 85.712 144.419 85.2C144.419 84.624 144.419 84.048 144.419 83.472C144.355 82.384 144.099 81.744 143.651 81.552C143.203 81.36 142.499 81.488 141.539 81.936C140.323 82.576 138.851 83.472 137.123 84.624C135.395 85.776 133.603 87.056 131.747 88.464C129.891 89.808 128.067 91.248 126.275 92.784C124.867 94.32 123.907 95.536 123.395 96.432C122.947 97.264 122.435 97.68 121.859 97.68C121.347 97.936 120.835 97.936 120.323 97.68C119.875 97.36 119.331 96.944 118.691 96.432C118.243 95.92 117.763 95.344 117.251 94.704C116.739 94.064 116.419 93.616 116.291 93.36C116.291 92.72 116.355 91.952 116.483 91.056C116.675 90.096 116.931 89.136 117.251 88.176C117.571 87.216 117.891 86.384 118.211 85.68C118.531 85.424 118.787 85.04 118.979 84.528C119.235 83.952 119.555 83.312 119.939 82.608C120.131 81.776 120.483 80.752 120.995 79.536C121.507 78.32 121.987 77.2 122.435 76.176C123.267 74.576 123.843 73.232 124.163 72.144C124.547 70.992 124.835 69.68 125.027 68.208C124.963 68.016 124.995 67.792 125.123 67.536C125.315 67.28 125.539 67.152 125.795 67.152H125.891C126.403 66.704 127.139 66.608 128.099 66.864C129.059 67.056 129.827 67.472 130.403 68.112C131.683 69.456 132.227 71.024 132.035 72.816C131.907 74.544 130.915 76.912 129.059 79.92C128.611 80.944 128.195 81.808 127.811 82.512C127.491 83.152 127.331 83.632 127.331 83.952C127.331 83.952 127.619 83.76 128.195 83.376C128.835 82.928 129.539 82.416 130.307 81.84C131.139 81.264 131.811 80.816 132.323 80.496C132.643 80.176 133.347 79.6 134.435 78.768C135.587 77.936 136.803 77.072 138.083 76.176C139.363 75.28 140.355 74.704 141.059 74.448C141.699 74.064 142.403 73.68 143.171 73.296C144.003 72.912 144.547 72.72 144.803 72.72C145.379 72.72 146.083 72.976 146.915 73.488C147.811 74 148.611 74.608 149.315 75.312C150.083 75.952 150.531 76.528 150.659 77.04C150.659 77.296 150.659 77.584 150.659 77.904C150.659 78.224 150.691 78.512 150.755 78.768C150.819 79.728 150.851 80.912 150.851 82.32C150.915 83.728 150.915 85.104 150.851 86.448C150.787 87.728 150.627 88.688 150.371 89.328C150.371 89.328 150.371 89.392 150.371 89.52C150.435 89.648 150.563 89.744 150.755 89.808C150.691 90 150.659 90.16 150.659 90.288C150.723 90.352 150.755 90.384 150.755 90.384C150.627 90.576 150.595 90.928 150.659 91.44C150.787 91.952 151.011 92.496 151.331 93.072C151.651 93.648 151.971 94.256 152.291 94.896C152.675 95.664 152.611 96.432 152.099 97.2C151.651 97.904 150.979 98.352 150.083 98.544ZM152.301 119.28C151.469 119.664 150.605 119.536 149.709 118.896C148.877 118.256 148.237 117.328 147.789 116.112C147.405 114.96 147.437 113.744 147.885 112.464C148.013 112.08 148.205 111.44 148.461 110.544C148.717 109.712 148.877 108.976 148.941 108.336C149.005 107.888 149.197 107.12 149.517 106.032C149.837 105.008 150.189 103.984 150.573 102.96C151.021 101.936 151.373 101.2 151.629 100.752C152.013 100.112 152.269 99.376 152.397 98.544C152.589 97.712 152.685 97.072 152.685 96.624C152.813 96.176 152.973 95.664 153.165 95.088C153.421 94.512 153.677 94.064 153.933 93.744C154.061 93.232 154.253 92.688 154.509 92.112C154.765 91.472 155.053 90.928 155.373 90.48C155.501 90.032 155.597 89.488 155.661 88.848C155.789 88.208 155.981 87.856 156.237 87.792C156.301 87.536 156.333 87.28 156.333 87.024C156.397 86.768 156.525 86.416 156.717 85.968C156.845 85.264 157.133 84.24 157.581 82.896C158.029 81.552 158.573 80.08 159.213 78.48C159.917 76.624 160.301 74.928 160.365 73.392C160.493 71.856 160.077 70.896 159.117 70.512C158.605 70.256 158.285 69.776 158.157 69.072C158.029 68.368 158.093 67.664 158.349 66.96C158.605 66.192 158.989 65.712 159.501 65.52C160.077 65.264 160.717 65.168 161.421 65.232C162.189 65.232 162.861 65.296 163.437 65.424C164.077 65.488 164.365 65.584 164.301 65.712C164.301 66.032 164.461 66.224 164.781 66.288C164.909 66.096 165.165 66.32 165.549 66.96C165.997 67.6 166.413 68.336 166.797 69.168C167.181 70 167.373 70.576 167.373 70.896C167.245 71.152 167.181 71.312 167.181 71.376C167.181 71.376 167.309 71.376 167.565 71.376C167.565 71.376 167.917 71.216 168.621 70.896C169.325 70.512 170.061 70.096 170.829 69.648C171.661 69.136 172.205 68.752 172.461 68.496C172.461 68.496 172.621 68.432 172.941 68.304C173.325 68.112 173.645 67.888 173.901 67.632C175.181 67.12 176.557 67.024 178.029 67.344C179.565 67.664 180.781 68.24 181.677 69.072C182.957 70.672 183.757 72.432 184.077 74.352C184.397 76.272 184.109 78.352 183.213 80.592C183.085 80.912 182.797 81.456 182.349 82.224C181.965 82.928 181.581 83.6 181.197 84.24C180.813 84.816 180.621 85.104 180.621 85.104C179.149 87.408 177.453 89.328 175.533 90.864C173.677 92.4 171.725 93.744 169.677 94.896C169.037 95.344 168.269 95.728 167.373 96.048C166.541 96.304 165.773 96.496 165.069 96.624C164.365 96.752 163.917 96.752 163.725 96.624C163.021 96.112 162.381 95.024 161.805 93.36C161.485 94.192 161.165 95.024 160.845 95.856C160.589 96.624 160.429 97.136 160.365 97.392C160.301 97.84 160.237 98.224 160.173 98.544C160.109 98.8 159.949 99.024 159.693 99.216C159.693 99.216 159.661 99.344 159.597 99.6C159.533 99.856 159.309 100.24 158.925 100.752C158.285 102.608 157.709 104.144 157.197 105.36C156.749 106.576 156.397 107.6 156.141 108.432C155.885 109.264 155.661 110.064 155.469 110.832C155.341 112.56 154.957 114.32 154.317 116.112C153.677 117.904 153.005 118.96 152.301 119.28ZM165.069 90.096C165.325 89.968 165.837 89.68 166.605 89.232C167.373 88.72 168.237 88.144 169.197 87.504C170.157 86.8 171.053 86.128 171.885 85.488C172.781 84.848 173.389 84.336 173.709 83.952C174.221 83.376 174.605 82.832 174.861 82.32C175.117 81.808 175.373 81.136 175.629 80.304C175.821 79.792 176.045 79.216 176.301 78.576C176.557 77.936 176.781 77.328 176.973 76.752C177.229 76.24 177.325 75.728 177.261 75.216C177.261 74.64 177.069 74.16 176.685 73.776C176.429 73.712 175.725 73.84 174.573 74.16C173.485 74.48 172.237 75.088 170.829 75.984C169.485 76.816 168.237 77.968 167.085 79.44C165.741 81.168 164.813 82.864 164.301 84.528C163.789 86.128 163.597 87.472 163.725 88.56C163.917 89.584 164.365 90.096 165.069 90.096ZM190.694 99.696C189.35 99.952 188.422 99.984 187.91 99.792C187.398 99.536 186.79 99.088 186.086 98.448C185.062 97.936 184.166 97.264 183.398 96.432C182.694 95.536 182.15 94.64 181.766 93.744C181.446 92.784 181.318 92.016 181.382 91.44C181.574 89.2 182.086 86.8 182.918 84.24C183.814 81.616 184.934 79.088 186.278 76.656C187.622 74.224 189.094 72.112 190.694 70.32C192.294 68.464 193.958 67.184 195.686 66.48C196.966 65.968 198.246 65.776 199.526 65.904C200.87 66.032 201.798 66.64 202.31 67.728C203.27 69.584 203.046 70.768 201.638 71.28C201.446 71.28 201.222 71.376 200.966 71.568C200.71 71.696 200.582 71.888 200.582 72.144C200.838 72.272 201.542 72.304 202.694 72.24C203.846 72.112 204.998 71.92 206.15 71.664C207.366 71.344 208.166 71.024 208.55 70.704C208.934 70.512 209.222 70.416 209.414 70.416C209.606 70.416 210.086 70.48 210.854 70.608C211.942 70.928 212.486 71.312 212.486 71.76C212.486 72.016 212.582 72.336 212.774 72.72C212.966 73.104 213.19 73.296 213.446 73.296C213.894 73.36 213.926 73.744 213.542 74.448C213.158 75.088 212.326 75.856 211.046 76.752C209.83 77.52 209.062 78.032 208.742 78.288C208.486 78.48 208.454 78.928 208.646 79.632C209.158 80.848 209.158 82.288 208.646 83.952C208.134 85.616 207.238 87.344 205.958 89.136C204.742 90.864 203.27 92.496 201.542 94.032C199.814 95.504 197.99 96.784 196.07 97.872C194.214 98.896 192.422 99.504 190.694 99.696ZM190.022 93.648C190.278 93.648 190.726 93.52 191.366 93.264C192.006 92.944 192.518 92.688 192.902 92.496C193.158 92.24 193.478 91.952 193.862 91.632C194.31 91.248 194.662 91.024 194.918 90.96C195.174 90.96 195.398 90.864 195.59 90.672C195.846 90.416 196.23 89.936 196.742 89.232C197.318 88.464 198.182 87.344 199.334 85.872C200.614 84.464 201.51 83.248 202.022 82.224C202.598 81.2 202.726 80.176 202.406 79.152C202.342 78.896 202.15 78.736 201.83 78.672C201.574 78.608 201.222 78.448 200.774 78.192C200.134 78.192 199.622 78.192 199.238 78.192C198.854 78.128 198.31 77.808 197.606 77.232L196.07 75.312L194.438 76.944C193.414 77.968 192.422 79.376 191.462 81.168C190.502 82.896 189.702 84.688 189.062 86.544C188.486 88.4 188.134 89.936 188.006 91.152C187.942 92.112 188.102 92.752 188.486 93.072C188.87 93.392 189.382 93.584 190.022 93.648ZM210.127 98.064C209.871 98.064 209.455 97.936 208.879 97.68C208.303 97.36 208.015 97.2 208.015 97.2C208.015 96.944 207.919 96.624 207.727 96.24C207.599 95.856 207.535 95.536 207.535 95.28C207.087 95.024 206.735 94.704 206.479 94.32C206.223 93.872 206.223 93.296 206.479 92.592C206.863 91.952 207.375 90.928 208.015 89.52C208.655 88.048 209.359 86.448 210.127 84.72C210.895 82.928 211.599 81.2 212.239 79.536C212.943 77.808 213.519 76.336 213.967 75.12C214.479 73.904 214.767 73.168 214.831 72.912C214.831 72.656 214.895 72.272 215.023 71.76C215.151 71.248 215.471 70.8 215.983 70.416C216.623 69.968 217.295 69.968 217.999 70.416C218.767 70.8 219.407 71.504 219.919 72.528C220.431 73.552 220.687 74.704 220.687 75.984C220.687 76.432 220.367 77.584 219.727 79.44C219.087 81.232 218.223 83.376 217.135 85.872C216.111 88.368 214.959 90.896 213.679 93.456C212.719 95.312 212.047 96.56 211.663 97.2C211.343 97.776 210.831 98.064 210.127 98.064ZM223.663 61.488C222.895 61.488 222.031 61.168 221.071 60.528C220.175 59.824 219.343 58.992 218.575 58.032C217.871 57.008 217.519 55.952 217.519 54.864C217.519 54.544 217.743 54.032 218.191 53.328C218.703 52.624 219.183 51.92 219.631 51.216C220.143 50.512 220.399 50.096 220.399 49.968C220.911 49.968 221.391 50.032 221.839 50.16C222.351 50.224 222.831 50.384 223.279 50.64C223.983 52.24 224.879 53.584 225.967 54.672C227.055 55.76 227.599 56.816 227.599 57.84C227.599 59.248 227.343 60.208 226.831 60.72C226.383 61.232 225.327 61.488 223.663 61.488ZM223.222 98.256C222.966 98.256 222.486 98.064 221.782 97.68C221.078 97.232 220.598 96.88 220.342 96.624C219.894 96.112 219.606 95.568 219.478 94.992C219.35 94.416 219.286 93.232 219.286 91.44C219.286 89.392 219.702 87.152 220.534 84.72C221.366 82.224 222.774 78.8 224.758 74.448L228.31 67.056C228.63 66.608 228.886 66.224 229.078 65.904C229.334 65.584 229.59 65.296 229.846 65.04C230.038 65.04 230.23 65.04 230.422 65.04C230.678 65.04 230.806 65.04 230.806 65.04C231.382 65.104 232.086 65.456 232.918 66.096C233.814 66.672 234.39 67.472 234.646 68.496C234.646 69.328 234.518 70.256 234.262 71.28C234.006 72.24 233.238 73.616 231.958 75.408C231.446 76.112 230.87 77.2 230.23 78.672C229.654 80.08 229.206 81.36 228.886 82.512C228.822 82.576 228.662 82.864 228.406 83.376C228.214 83.824 227.99 84.336 227.734 84.912C227.478 85.424 227.286 85.84 227.158 86.16L226.774 87.696L232.054 82.32C234.998 79.376 237.43 77.296 239.35 76.08C241.27 74.8 242.838 74.256 244.054 74.448C245.334 74.64 246.358 75.472 247.126 76.944C247.574 77.584 247.894 78.224 248.086 78.864C248.342 79.504 248.502 80.304 248.566 81.264C248.63 82.16 248.566 83.44 248.374 85.104V90.768C249.462 90.512 250.294 90.288 250.87 90.096C251.51 89.84 252.15 89.584 252.79 89.328C253.302 89.136 253.878 88.976 254.518 88.848C255.222 88.656 256.086 88.528 257.11 88.464C257.046 89.296 256.726 90.256 256.15 91.344C255.574 92.368 254.838 93.392 253.942 94.416C253.11 95.44 252.214 96.272 251.254 96.912C250.294 97.552 249.366 97.872 248.47 97.872C247.638 97.872 246.678 97.552 245.59 96.912C244.566 96.208 243.734 95.184 243.094 93.84C242.838 93.072 242.646 92.24 242.518 91.344C242.39 90.384 242.326 89.008 242.326 87.216V83.376C242.326 82.672 242.134 82.384 241.75 82.512C241.43 82.64 241.174 82.8 240.982 82.992C240.342 83.44 239.414 84.272 238.198 85.488C236.982 86.64 235.766 87.888 234.55 89.232C231.606 92.304 229.142 94.576 227.158 96.048C225.238 97.52 223.926 98.256 223.222 98.256ZM261.535 101.712C260.831 101.584 260.095 101.2 259.327 100.56C258.559 99.856 257.855 99.088 257.215 98.256C256.639 97.36 256.255 96.592 256.063 95.952C256.063 95.824 255.967 95.664 255.775 95.472C255.647 95.28 255.583 95.184 255.583 95.184C255.327 94.992 255.167 94.16 255.103 92.688C255.103 91.152 255.199 89.456 255.391 87.6C255.583 85.744 255.807 84.272 256.063 83.184C256.383 82.16 256.863 80.784 257.503 79.056C258.143 77.264 258.687 75.664 259.135 74.256L261.727 68.688L257.887 67.632C257.439 67.504 257.055 67.248 256.735 66.864C256.479 66.48 256.351 66.16 256.351 65.904C256.351 65.392 256.639 64.72 257.215 63.888C257.791 63.056 258.207 62.64 258.463 62.64C258.783 62.704 259.359 62.736 260.191 62.736C261.087 62.736 261.951 62.704 262.783 62.64C263.615 62.576 264.127 62.512 264.319 62.448C264.575 62.32 264.831 62.16 265.087 61.968C265.343 61.712 265.535 61.36 265.663 60.912C265.983 60.208 266.271 59.6 266.527 59.088C266.783 58.576 267.135 57.936 267.583 57.168C268.031 56.336 268.383 55.632 268.639 55.056C268.959 54.48 269.439 53.68 270.079 52.656C270.399 52.208 270.751 51.664 271.135 51.024C271.519 50.384 271.999 49.84 272.575 49.392C273.151 48.88 273.887 48.592 274.783 48.528C275.743 48.4 276.703 48.752 277.663 49.584C278.175 50.224 278.463 50.768 278.527 51.216C278.591 51.664 278.335 52.336 277.759 53.232C277.247 54.32 276.639 55.376 275.935 56.4C275.295 57.36 274.687 58.384 274.111 59.472C273.087 60.88 272.895 61.68 273.535 61.872C274.175 62.064 275.967 61.936 278.911 61.488C280.767 61.168 282.111 61.296 282.943 61.872C283.775 62.448 284.255 63.28 284.383 64.368C284.575 65.904 284.415 66.832 283.903 67.152C283.391 67.472 281.919 67.632 279.487 67.632C277.951 67.888 276.639 68.048 275.551 68.112C274.463 68.112 273.663 68.112 273.151 68.112C272.319 68.176 271.775 68.208 271.519 68.208C271.263 68.208 270.879 68.272 270.367 68.4C269.855 68.528 269.471 68.752 269.215 69.072C269.023 69.328 268.799 69.712 268.543 70.224C268.287 70.48 267.903 71.152 267.391 72.24C266.879 73.328 266.239 74.512 265.471 75.792C264.575 78.48 263.807 81.104 263.167 83.664C262.591 86.224 262.079 88.752 261.631 91.248C261.439 92.656 261.471 93.648 261.727 94.224C262.047 94.8 262.879 95.152 264.223 95.28C264.927 95.344 266.015 95.344 267.487 95.28C268.959 95.152 270.143 94.96 271.039 94.704C271.743 94.384 272.479 94.064 273.247 93.744C274.015 93.36 274.719 92.976 275.359 92.592C275.935 92.272 276.511 91.952 277.087 91.632C277.663 91.248 277.951 91.056 277.951 91.056C278.271 90.544 278.655 90.512 279.103 90.96C279.615 91.344 279.999 91.92 280.255 92.688C280.255 93.456 280.095 94.32 279.775 95.28C279.455 96.176 278.271 97.2 276.223 98.352C273.343 100.144 270.591 101.232 267.967 101.616C265.343 102 263.199 102.032 261.535 101.712Z" fill="white"/>
<path fill-rule="evenodd" clip-rule="evenodd" d="M156.661 119.498C165.827 119.498 173.258 117.649 173.258 115.367C173.258 114.487 172.151 113.67 170.264 113C174.985 113.826 178 115.084 178 116.494C178 118.982 168.598 121 157 121C145.402 121 136 118.982 136 116.494C136 115.223 138.45 114.076 142.392 113.256C140.914 113.874 140.065 114.596 140.065 115.367C140.065 117.649 147.495 119.498 156.661 119.498Z" fill="white"/>
<path fill-rule="evenodd" clip-rule="evenodd" d="M157.04 125.31C169.48 125.31 179.565 123.23 179.565 120.663C179.565 119.672 178.062 118.754 175.502 118C181.909 118.93 186 120.345 186 121.93C186 124.73 173.24 127 157.5 127C141.76 127 129 124.73 129 121.93C129 120.501 132.325 119.21 137.675 118.288C135.669 118.983 134.516 119.795 134.516 120.663C134.516 123.23 144.601 125.31 157.04 125.31Z" fill="white"/>
</svg>
