<svg width="347" height="130" viewBox="0 0 347 130" fill="none" xmlns="http://www.w3.org/2000/svg">
<rect y="0.909088" width="347" height="129.091" rx="53" fill="#737EFF"/>
<path d="M69.0599 94.992C68.2919 94.992 67.6519 94.576 67.1399 93.744C66.7559 93.36 66.4359 92.784 66.1799 92.016C65.9239 91.312 65.9559 90.064 66.2759 88.272C66.6599 86.416 67.4599 83.664 68.6759 80.016C69.3159 77.584 69.8279 75.824 70.2119 74.736C70.5959 73.584 70.7879 72.752 70.7879 72.24C70.7879 71.536 70.8519 70.96 70.9799 70.512C71.1719 70 71.2679 69.52 71.2679 69.072C71.6519 69.072 72.0359 68.72 72.4199 68.016C72.8039 67.312 73.1239 66.352 73.3799 65.136C73.6359 64.048 73.8599 63.184 74.0519 62.544C74.3079 61.84 74.4359 61.36 74.4359 61.104C74.7559 60.592 75.0759 59.792 75.3959 58.704C75.7799 57.616 76.3559 56.304 77.1239 54.768C77.6359 52.848 78.2119 50.864 78.8519 48.816C79.4919 46.704 80.1319 44.752 80.7719 42.96C81.4759 41.104 82.0519 39.664 82.4999 38.64C83.2039 36.656 83.7479 35.28 84.1319 34.512C84.5159 33.68 84.5159 33.136 84.1319 32.88C83.6839 32.56 83.5239 31.888 83.6519 30.864C83.8439 29.84 84.5159 28.848 85.6679 27.888C86.3719 27.056 87.1079 26.48 87.8759 26.16C88.6439 25.776 89.5719 25.584 90.6599 25.584C91.7479 25.584 93.0599 25.648 94.5959 25.776C95.7479 25.84 96.9639 25.872 98.2439 25.872C99.5879 25.872 100.42 25.872 100.74 25.872C101.316 26.128 102.02 26.416 102.852 26.736C103.684 26.992 104.42 27.28 105.06 27.6C105.764 27.856 106.116 28.08 106.116 28.272C106.116 28.656 106.244 28.912 106.5 29.04C106.82 29.104 107.14 29.168 107.46 29.232C107.908 29.232 108.58 29.616 109.476 30.384C110.372 31.088 111.268 31.984 112.164 33.072C113.124 34.096 113.828 35.152 114.276 36.24C114.788 37.328 115.204 38.352 115.524 39.312C115.844 40.272 115.844 41.648 115.524 43.44C115.46 44.4 115.3 45.36 115.044 46.32C114.852 47.28 114.628 47.92 114.372 48.24C113.988 48.496 113.636 48.816 113.316 49.2C112.996 49.584 112.836 49.936 112.836 50.256C112.836 50.512 112.58 51.056 112.068 51.888C111.62 52.72 111.012 53.712 110.244 54.864C109.54 55.952 108.74 57.04 107.844 58.128C107.012 59.216 106.212 60.112 105.444 60.816C104.612 61.84 103.62 62.8 102.468 63.696C101.38 64.592 100.388 65.328 99.4919 65.904C97.8279 66.672 95.9719 67.44 93.9239 68.208C91.8759 68.912 89.8919 69.488 87.9719 69.936C86.0519 70.384 84.4839 70.576 83.2679 70.512C81.4119 70.768 80.1959 71.024 79.6199 71.28C79.1079 71.472 78.7239 72.016 78.4679 72.912C78.1479 73.744 77.8279 74.608 77.5079 75.504C77.2519 76.4 77.1239 77.008 77.1239 77.328C76.9959 77.584 76.7079 78.352 76.2599 79.632C75.8119 80.848 75.2999 82.288 74.7239 83.952C74.2119 85.552 73.6999 87.152 73.1879 88.752C72.7399 90.352 72.3879 91.696 72.1319 92.784C71.8759 93.68 71.4279 94.256 70.7879 94.512C70.2119 94.832 69.6359 94.992 69.0599 94.992ZM81.8279 64.176C82.0839 64.432 82.9799 64.464 84.5159 64.272C86.1159 64.08 87.9079 63.6 89.8919 62.832C91.1719 62.384 92.4519 61.84 93.7319 61.2C95.0759 60.56 96.3559 59.856 97.5719 59.088C98.2119 58.64 99.0439 57.968 100.068 57.072C101.092 56.112 102.244 54.832 103.524 53.232C103.716 52.912 104.036 52.304 104.484 51.408C104.996 50.448 105.444 49.552 105.828 48.72C106.404 47.824 106.98 46.512 107.556 44.784C108.132 42.992 108.26 41.52 107.94 40.368C107.62 38.704 106.852 37.232 105.636 35.952C104.484 34.672 103.076 33.776 101.412 33.264C100.004 33.008 98.8199 32.88 97.8599 32.88C96.9639 32.816 95.9719 32.88 94.8839 33.072C93.8599 33.392 93.1239 33.84 92.6759 34.416C92.2279 34.992 91.6199 36.208 90.8519 38.064C90.4039 38.96 89.7639 40.272 88.9319 42C88.0999 43.664 87.3959 45.296 86.8199 46.896C85.6679 51.12 84.5799 54.48 83.5559 56.976C82.5959 59.472 81.9879 61.072 81.7319 61.776C81.7959 62.48 81.7639 62.992 81.6359 63.312C81.5079 63.568 81.5719 63.856 81.8279 64.176ZM106.556 87.6C106.044 87.088 105.66 86.384 105.404 85.488C105.212 84.592 105.148 83.728 105.212 82.896C105.276 82 105.436 81.296 105.692 80.784C105.692 80.272 105.756 79.888 105.884 79.632C106.076 79.312 106.14 79.024 106.076 78.768C106.012 78.512 106.076 78.064 106.268 77.424C106.46 76.784 106.652 76.176 106.844 75.6C107.292 74.576 107.772 73.296 108.284 71.76C108.86 70.224 109.404 68.688 109.916 67.152C110.428 65.616 110.844 64.304 111.164 63.216C111.548 62.064 111.772 61.36 111.836 61.104C111.836 60.336 112.348 59.92 113.372 59.856C114.14 59.6 114.876 59.76 115.58 60.336C116.284 60.848 116.956 61.616 117.596 62.64C118.108 63.152 118.3 63.888 118.172 64.848C118.044 65.744 117.628 66.96 116.924 68.496C116.668 69.008 116.348 69.808 115.964 70.896C115.644 71.92 115.42 72.816 115.292 73.584C115.036 74.096 114.716 74.832 114.332 75.792C114.012 76.688 113.724 77.552 113.468 78.384C113.34 78.704 113.212 79.248 113.084 80.016C112.956 80.72 112.796 81.456 112.604 82.224C112.412 82.992 112.156 83.632 111.836 84.144C111.26 86.768 110.492 88.304 109.532 88.752C108.636 89.2 107.644 88.816 106.556 87.6ZM116.348 48.912C115.9 48.464 115.516 47.92 115.196 47.28C114.876 46.576 114.684 45.968 114.62 45.456C114.62 44.88 114.684 44.56 114.812 44.496C115.388 44.112 115.964 43.376 116.54 42.288C117.18 41.2 117.596 40.24 117.788 39.408C117.852 39.152 117.98 38.896 118.172 38.64C118.364 38.32 118.588 38.128 118.844 38.064C119.612 37.552 120.508 37.552 121.532 38.064C122.62 38.512 123.484 39.248 124.124 40.272C124.7 41.488 124.86 42.608 124.604 43.632C124.348 44.656 123.644 45.872 122.492 47.28C121.532 48.56 120.476 49.328 119.324 49.584C118.236 49.776 117.244 49.552 116.348 48.912ZM150.083 86.544C148.739 86.544 147.619 86.288 146.723 85.776C145.827 85.2 145.091 84.24 144.515 82.896C144.259 81.936 144.099 80.912 144.035 79.824C143.971 78.672 143.971 77.584 144.035 76.56C144.099 75.536 144.195 74.768 144.323 74.256C144.451 74.064 144.483 73.712 144.419 73.2C144.419 72.624 144.419 72.048 144.419 71.472C144.355 70.384 144.099 69.744 143.651 69.552C143.203 69.36 142.499 69.488 141.539 69.936C140.323 70.576 138.851 71.472 137.123 72.624C135.395 73.776 133.603 75.056 131.747 76.464C129.891 77.808 128.067 79.248 126.275 80.784C124.867 82.32 123.907 83.536 123.395 84.432C122.947 85.264 122.435 85.68 121.859 85.68C121.347 85.936 120.835 85.936 120.323 85.68C119.875 85.36 119.331 84.944 118.691 84.432C118.243 83.92 117.763 83.344 117.251 82.704C116.739 82.064 116.419 81.616 116.291 81.36C116.291 80.72 116.355 79.952 116.483 79.056C116.675 78.096 116.931 77.136 117.251 76.176C117.571 75.216 117.891 74.384 118.211 73.68C118.531 73.424 118.787 73.04 118.979 72.528C119.235 71.952 119.555 71.312 119.939 70.608C120.131 69.776 120.483 68.752 120.995 67.536C121.507 66.32 121.987 65.2 122.435 64.176C123.267 62.576 123.843 61.232 124.163 60.144C124.547 58.992 124.835 57.68 125.027 56.208C124.963 56.016 124.995 55.792 125.123 55.536C125.315 55.28 125.539 55.152 125.795 55.152H125.891C126.403 54.704 127.139 54.608 128.099 54.864C129.059 55.056 129.827 55.472 130.403 56.112C131.683 57.456 132.227 59.024 132.035 60.816C131.907 62.544 130.915 64.912 129.059 67.92C128.611 68.944 128.195 69.808 127.811 70.512C127.491 71.152 127.331 71.632 127.331 71.952C127.331 71.952 127.619 71.76 128.195 71.376C128.835 70.928 129.539 70.416 130.307 69.84C131.139 69.264 131.811 68.816 132.323 68.496C132.643 68.176 133.347 67.6 134.435 66.768C135.587 65.936 136.803 65.072 138.083 64.176C139.363 63.28 140.355 62.704 141.059 62.448C141.699 62.064 142.403 61.68 143.171 61.296C144.003 60.912 144.547 60.72 144.803 60.72C145.379 60.72 146.083 60.976 146.915 61.488C147.811 62 148.611 62.608 149.315 63.312C150.083 63.952 150.531 64.528 150.659 65.04C150.659 65.296 150.659 65.584 150.659 65.904C150.659 66.224 150.691 66.512 150.755 66.768C150.819 67.728 150.851 68.912 150.851 70.32C150.915 71.728 150.915 73.104 150.851 74.448C150.787 75.728 150.627 76.688 150.371 77.328C150.371 77.328 150.371 77.392 150.371 77.52C150.435 77.648 150.563 77.744 150.755 77.808C150.691 78 150.659 78.16 150.659 78.288C150.723 78.352 150.755 78.384 150.755 78.384C150.627 78.576 150.595 78.928 150.659 79.44C150.787 79.952 151.011 80.496 151.331 81.072C151.651 81.648 151.971 82.256 152.291 82.896C152.675 83.664 152.611 84.432 152.099 85.2C151.651 85.904 150.979 86.352 150.083 86.544ZM152.301 107.28C151.469 107.664 150.605 107.536 149.709 106.896C148.877 106.256 148.237 105.328 147.789 104.112C147.405 102.96 147.437 101.744 147.885 100.464C148.013 100.08 148.205 99.44 148.461 98.544C148.717 97.712 148.877 96.976 148.941 96.336C149.005 95.888 149.197 95.12 149.517 94.032C149.837 93.008 150.189 91.984 150.573 90.96C151.021 89.936 151.373 89.2 151.629 88.752C152.013 88.112 152.269 87.376 152.397 86.544C152.589 85.712 152.685 85.072 152.685 84.624C152.813 84.176 152.973 83.664 153.165 83.088C153.421 82.512 153.677 82.064 153.933 81.744C154.061 81.232 154.253 80.688 154.509 80.112C154.765 79.472 155.053 78.928 155.373 78.48C155.501 78.032 155.597 77.488 155.661 76.848C155.789 76.208 155.981 75.856 156.237 75.792C156.301 75.536 156.333 75.28 156.333 75.024C156.397 74.768 156.525 74.416 156.717 73.968C156.845 73.264 157.133 72.24 157.581 70.896C158.029 69.552 158.573 68.08 159.213 66.48C159.917 64.624 160.301 62.928 160.365 61.392C160.493 59.856 160.077 58.896 159.117 58.512C158.605 58.256 158.285 57.776 158.157 57.072C158.029 56.368 158.093 55.664 158.349 54.96C158.605 54.192 158.989 53.712 159.501 53.52C160.077 53.264 160.717 53.168 161.421 53.232C162.189 53.232 162.861 53.296 163.437 53.424C164.077 53.488 164.365 53.584 164.301 53.712C164.301 54.032 164.461 54.224 164.781 54.288C164.909 54.096 165.165 54.32 165.549 54.96C165.997 55.6 166.413 56.336 166.797 57.168C167.181 58 167.373 58.576 167.373 58.896C167.245 59.152 167.181 59.312 167.181 59.376C167.181 59.376 167.309 59.376 167.565 59.376C167.565 59.376 167.917 59.216 168.621 58.896C169.325 58.512 170.061 58.096 170.829 57.648C171.661 57.136 172.205 56.752 172.461 56.496C172.461 56.496 172.621 56.432 172.941 56.304C173.325 56.112 173.645 55.888 173.901 55.632C175.181 55.12 176.557 55.024 178.029 55.344C179.565 55.664 180.781 56.24 181.677 57.072C182.957 58.672 183.757 60.432 184.077 62.352C184.397 64.272 184.109 66.352 183.213 68.592C183.085 68.912 182.797 69.456 182.349 70.224C181.965 70.928 181.581 71.6 181.197 72.24C180.813 72.816 180.621 73.104 180.621 73.104C179.149 75.408 177.453 77.328 175.533 78.864C173.677 80.4 171.725 81.744 169.677 82.896C169.037 83.344 168.269 83.728 167.373 84.048C166.541 84.304 165.773 84.496 165.069 84.624C164.365 84.752 163.917 84.752 163.725 84.624C163.021 84.112 162.381 83.024 161.805 81.36C161.485 82.192 161.165 83.024 160.845 83.856C160.589 84.624 160.429 85.136 160.365 85.392C160.301 85.84 160.237 86.224 160.173 86.544C160.109 86.8 159.949 87.024 159.693 87.216C159.693 87.216 159.661 87.344 159.597 87.6C159.533 87.856 159.309 88.24 158.925 88.752C158.285 90.608 157.709 92.144 157.197 93.36C156.749 94.576 156.397 95.6 156.141 96.432C155.885 97.264 155.661 98.064 155.469 98.832C155.341 100.56 154.957 102.32 154.317 104.112C153.677 105.904 153.005 106.96 152.301 107.28ZM165.069 78.096C165.325 77.968 165.837 77.68 166.605 77.232C167.373 76.72 168.237 76.144 169.197 75.504C170.157 74.8 171.053 74.128 171.885 73.488C172.781 72.848 173.389 72.336 173.709 71.952C174.221 71.376 174.605 70.832 174.861 70.32C175.117 69.808 175.373 69.136 175.629 68.304C175.821 67.792 176.045 67.216 176.301 66.576C176.557 65.936 176.781 65.328 176.973 64.752C177.229 64.24 177.325 63.728 177.261 63.216C177.261 62.64 177.069 62.16 176.685 61.776C176.429 61.712 175.725 61.84 174.573 62.16C173.485 62.48 172.237 63.088 170.829 63.984C169.485 64.816 168.237 65.968 167.085 67.44C165.741 69.168 164.813 70.864 164.301 72.528C163.789 74.128 163.597 75.472 163.725 76.56C163.917 77.584 164.365 78.096 165.069 78.096ZM190.694 87.696C189.35 87.952 188.422 87.984 187.91 87.792C187.398 87.536 186.79 87.088 186.086 86.448C185.062 85.936 184.166 85.264 183.398 84.432C182.694 83.536 182.15 82.64 181.766 81.744C181.446 80.784 181.318 80.016 181.382 79.44C181.574 77.2 182.086 74.8 182.918 72.24C183.814 69.616 184.934 67.088 186.278 64.656C187.622 62.224 189.094 60.112 190.694 58.32C192.294 56.464 193.958 55.184 195.686 54.48C196.966 53.968 198.246 53.776 199.526 53.904C200.87 54.032 201.798 54.64 202.31 55.728C203.27 57.584 203.046 58.768 201.638 59.28C201.446 59.28 201.222 59.376 200.966 59.568C200.71 59.696 200.582 59.888 200.582 60.144C200.838 60.272 201.542 60.304 202.694 60.24C203.846 60.112 204.998 59.92 206.15 59.664C207.366 59.344 208.166 59.024 208.55 58.704C208.934 58.512 209.222 58.416 209.414 58.416C209.606 58.416 210.086 58.48 210.854 58.608C211.942 58.928 212.486 59.312 212.486 59.76C212.486 60.016 212.582 60.336 212.774 60.72C212.966 61.104 213.19 61.296 213.446 61.296C213.894 61.36 213.926 61.744 213.542 62.448C213.158 63.088 212.326 63.856 211.046 64.752C209.83 65.52 209.062 66.032 208.742 66.288C208.486 66.48 208.454 66.928 208.646 67.632C209.158 68.848 209.158 70.288 208.646 71.952C208.134 73.616 207.238 75.344 205.958 77.136C204.742 78.864 203.27 80.496 201.542 82.032C199.814 83.504 197.99 84.784 196.07 85.872C194.214 86.896 192.422 87.504 190.694 87.696ZM190.022 81.648C190.278 81.648 190.726 81.52 191.366 81.264C192.006 80.944 192.518 80.688 192.902 80.496C193.158 80.24 193.478 79.952 193.862 79.632C194.31 79.248 194.662 79.024 194.918 78.96C195.174 78.96 195.398 78.864 195.59 78.672C195.846 78.416 196.23 77.936 196.742 77.232C197.318 76.464 198.182 75.344 199.334 73.872C200.614 72.464 201.51 71.248 202.022 70.224C202.598 69.2 202.726 68.176 202.406 67.152C202.342 66.896 202.15 66.736 201.83 66.672C201.574 66.608 201.222 66.448 200.774 66.192C200.134 66.192 199.622 66.192 199.238 66.192C198.854 66.128 198.31 65.808 197.606 65.232L196.07 63.312L194.438 64.944C193.414 65.968 192.422 67.376 191.462 69.168C190.502 70.896 189.702 72.688 189.062 74.544C188.486 76.4 188.134 77.936 188.006 79.152C187.942 80.112 188.102 80.752 188.486 81.072C188.87 81.392 189.382 81.584 190.022 81.648ZM210.127 86.064C209.871 86.064 209.455 85.936 208.879 85.68C208.303 85.36 208.015 85.2 208.015 85.2C208.015 84.944 207.919 84.624 207.727 84.24C207.599 83.856 207.535 83.536 207.535 83.28C207.087 83.024 206.735 82.704 206.479 82.32C206.223 81.872 206.223 81.296 206.479 80.592C206.863 79.952 207.375 78.928 208.015 77.52C208.655 76.048 209.359 74.448 210.127 72.72C210.895 70.928 211.599 69.2 212.239 67.536C212.943 65.808 213.519 64.336 213.967 63.12C214.479 61.904 214.767 61.168 214.831 60.912C214.831 60.656 214.895 60.272 215.023 59.76C215.151 59.248 215.471 58.8 215.983 58.416C216.623 57.968 217.295 57.968 217.999 58.416C218.767 58.8 219.407 59.504 219.919 60.528C220.431 61.552 220.687 62.704 220.687 63.984C220.687 64.432 220.367 65.584 219.727 67.44C219.087 69.232 218.223 71.376 217.135 73.872C216.111 76.368 214.959 78.896 213.679 81.456C212.719 83.312 212.047 84.56 211.663 85.2C211.343 85.776 210.831 86.064 210.127 86.064ZM223.663 49.488C222.895 49.488 222.031 49.168 221.071 48.528C220.175 47.824 219.343 46.992 218.575 46.032C217.871 45.008 217.519 43.952 217.519 42.864C217.519 42.544 217.743 42.032 218.191 41.328C218.703 40.624 219.183 39.92 219.631 39.216C220.143 38.512 220.399 38.096 220.399 37.968C220.911 37.968 221.391 38.032 221.839 38.16C222.351 38.224 222.831 38.384 223.279 38.64C223.983 40.24 224.879 41.584 225.967 42.672C227.055 43.76 227.599 44.816 227.599 45.84C227.599 47.248 227.343 48.208 226.831 48.72C226.383 49.232 225.327 49.488 223.663 49.488ZM223.222 86.256C222.966 86.256 222.486 86.064 221.782 85.68C221.078 85.232 220.598 84.88 220.342 84.624C219.894 84.112 219.606 83.568 219.478 82.992C219.35 82.416 219.286 81.232 219.286 79.44C219.286 77.392 219.702 75.152 220.534 72.72C221.366 70.224 222.774 66.8 224.758 62.448L228.31 55.056C228.63 54.608 228.886 54.224 229.078 53.904C229.334 53.584 229.59 53.296 229.846 53.04C230.038 53.04 230.23 53.04 230.422 53.04C230.678 53.04 230.806 53.04 230.806 53.04C231.382 53.104 232.086 53.456 232.918 54.096C233.814 54.672 234.39 55.472 234.646 56.496C234.646 57.328 234.518 58.256 234.262 59.28C234.006 60.24 233.238 61.616 231.958 63.408C231.446 64.112 230.87 65.2 230.23 66.672C229.654 68.08 229.206 69.36 228.886 70.512C228.822 70.576 228.662 70.864 228.406 71.376C228.214 71.824 227.99 72.336 227.734 72.912C227.478 73.424 227.286 73.84 227.158 74.16L226.774 75.696L232.054 70.32C234.998 67.376 237.43 65.296 239.35 64.08C241.27 62.8 242.838 62.256 244.054 62.448C245.334 62.64 246.358 63.472 247.126 64.944C247.574 65.584 247.894 66.224 248.086 66.864C248.342 67.504 248.502 68.304 248.566 69.264C248.63 70.16 248.566 71.44 248.374 73.104V78.768C249.462 78.512 250.294 78.288 250.87 78.096C251.51 77.84 252.15 77.584 252.79 77.328C253.302 77.136 253.878 76.976 254.518 76.848C255.222 76.656 256.086 76.528 257.11 76.464C257.046 77.296 256.726 78.256 256.15 79.344C255.574 80.368 254.838 81.392 253.942 82.416C253.11 83.44 252.214 84.272 251.254 84.912C250.294 85.552 249.366 85.872 248.47 85.872C247.638 85.872 246.678 85.552 245.59 84.912C244.566 84.208 243.734 83.184 243.094 81.84C242.838 81.072 242.646 80.24 242.518 79.344C242.39 78.384 242.326 77.008 242.326 75.216V71.376C242.326 70.672 242.134 70.384 241.75 70.512C241.43 70.64 241.174 70.8 240.982 70.992C240.342 71.44 239.414 72.272 238.198 73.488C236.982 74.64 235.766 75.888 234.55 77.232C231.606 80.304 229.142 82.576 227.158 84.048C225.238 85.52 223.926 86.256 223.222 86.256ZM261.535 89.712C260.831 89.584 260.095 89.2 259.327 88.56C258.559 87.856 257.855 87.088 257.215 86.256C256.639 85.36 256.255 84.592 256.063 83.952C256.063 83.824 255.967 83.664 255.775 83.472C255.647 83.28 255.583 83.184 255.583 83.184C255.327 82.992 255.167 82.16 255.103 80.688C255.103 79.152 255.199 77.456 255.391 75.6C255.583 73.744 255.807 72.272 256.063 71.184C256.383 70.16 256.863 68.784 257.503 67.056C258.143 65.264 258.687 63.664 259.135 62.256L261.727 56.688L257.887 55.632C257.439 55.504 257.055 55.248 256.735 54.864C256.479 54.48 256.351 54.16 256.351 53.904C256.351 53.392 256.639 52.72 257.215 51.888C257.791 51.056 258.207 50.64 258.463 50.64C258.783 50.704 259.359 50.736 260.191 50.736C261.087 50.736 261.951 50.704 262.783 50.64C263.615 50.576 264.127 50.512 264.319 50.448C264.575 50.32 264.831 50.16 265.087 49.968C265.343 49.712 265.535 49.36 265.663 48.912C265.983 48.208 266.271 47.6 266.527 47.088C266.783 46.576 267.135 45.936 267.583 45.168C268.031 44.336 268.383 43.632 268.639 43.056C268.959 42.48 269.439 41.68 270.079 40.656C270.399 40.208 270.751 39.664 271.135 39.024C271.519 38.384 271.999 37.84 272.575 37.392C273.151 36.88 273.887 36.592 274.783 36.528C275.743 36.4 276.703 36.752 277.663 37.584C278.175 38.224 278.463 38.768 278.527 39.216C278.591 39.664 278.335 40.336 277.759 41.232C277.247 42.32 276.639 43.376 275.935 44.4C275.295 45.36 274.687 46.384 274.111 47.472C273.087 48.88 272.895 49.68 273.535 49.872C274.175 50.064 275.967 49.936 278.911 49.488C280.767 49.168 282.111 49.296 282.943 49.872C283.775 50.448 284.255 51.28 284.383 52.368C284.575 53.904 284.415 54.832 283.903 55.152C283.391 55.472 281.919 55.632 279.487 55.632C277.951 55.888 276.639 56.048 275.551 56.112C274.463 56.112 273.663 56.112 273.151 56.112C272.319 56.176 271.775 56.208 271.519 56.208C271.263 56.208 270.879 56.272 270.367 56.4C269.855 56.528 269.471 56.752 269.215 57.072C269.023 57.328 268.799 57.712 268.543 58.224C268.287 58.48 267.903 59.152 267.391 60.24C266.879 61.328 266.239 62.512 265.471 63.792C264.575 66.48 263.807 69.104 263.167 71.664C262.591 74.224 262.079 76.752 261.631 79.248C261.439 80.656 261.471 81.648 261.727 82.224C262.047 82.8 262.879 83.152 264.223 83.28C264.927 83.344 266.015 83.344 267.487 83.28C268.959 83.152 270.143 82.96 271.039 82.704C271.743 82.384 272.479 82.064 273.247 81.744C274.015 81.36 274.719 80.976 275.359 80.592C275.935 80.272 276.511 79.952 277.087 79.632C277.663 79.248 277.951 79.056 277.951 79.056C278.271 78.544 278.655 78.512 279.103 78.96C279.615 79.344 279.999 79.92 280.255 80.688C280.255 81.456 280.095 82.32 279.775 83.28C279.455 84.176 278.271 85.2 276.223 86.352C273.343 88.144 270.591 89.232 267.967 89.616C265.343 90 263.199 90.032 261.535 89.712Z" fill="white"/>
<path fill-rule="evenodd" clip-rule="evenodd" d="M156.661 107.498C165.827 107.498 173.258 105.649 173.258 103.367C173.258 102.487 172.151 101.67 170.264 101C174.985 101.826 178 103.084 178 104.494C178 106.982 168.598 109 157 109C145.402 109 136 106.982 136 104.494C136 103.223 138.45 102.076 142.392 101.256C140.914 101.874 140.065 102.596 140.065 103.367C140.065 105.649 147.495 107.498 156.661 107.498Z" fill="white"/>
<path fill-rule="evenodd" clip-rule="evenodd" d="M157.04 113.31C169.48 113.31 179.565 111.23 179.565 108.663C179.565 107.672 178.062 106.754 175.502 106C181.909 106.93 186 108.345 186 109.93C186 112.73 173.24 115 157.5 115C141.76 115 129 112.73 129 109.93C129 108.501 132.325 107.21 137.675 106.288C135.669 106.983 134.516 107.795 134.516 108.663C134.516 111.23 144.601 113.31 157.04 113.31Z" fill="white"/>
</svg>
