<svg width="274" height="141" viewBox="0 0 274 141" fill="none" xmlns="http://www.w3.org/2000/svg">
<path d="M38.6213 106.992C37.8533 106.992 37.2133 106.576 36.7013 105.744C36.3173 105.36 35.9973 104.784 35.7413 104.016C35.4853 103.312 35.5173 102.064 35.8373 100.272C36.2213 98.416 37.0213 95.664 38.2373 92.016C38.8773 89.584 39.3893 87.824 39.7733 86.736C40.1573 85.584 40.3493 84.752 40.3493 84.24C40.3493 83.536 40.4133 82.96 40.5413 82.512C40.7333 82 40.8293 81.52 40.8293 81.072C41.2133 81.072 41.5973 80.72 41.9813 80.016C42.3653 79.312 42.6853 78.352 42.9413 77.136C43.1973 76.048 43.4213 75.184 43.6133 74.544C43.8693 73.84 43.9973 73.36 43.9973 73.104C44.3173 72.592 44.6373 71.792 44.9573 70.704C45.3413 69.616 45.9173 68.304 46.6853 66.768C47.1973 64.848 47.7733 62.864 48.4133 60.816C49.0533 58.704 49.6933 56.752 50.3333 54.96C51.0373 53.104 51.6133 51.664 52.0613 50.64C52.7653 48.656 53.3093 47.28 53.6933 46.512C54.0773 45.68 54.0773 45.136 53.6933 44.88C53.2453 44.56 53.0853 43.888 53.2133 42.864C53.4053 41.84 54.0773 40.848 55.2293 39.888C55.9333 39.056 56.6693 38.48 57.4373 38.16C58.2053 37.776 59.1333 37.584 60.2213 37.584C61.3093 37.584 62.6213 37.648 64.1573 37.776C65.3093 37.84 66.5253 37.872 67.8053 37.872C69.1493 37.872 69.9813 37.872 70.3013 37.872C70.8773 38.128 71.5813 38.416 72.4133 38.736C73.2453 38.992 73.9813 39.28 74.6213 39.6C75.3253 39.856 75.6773 40.08 75.6773 40.272C75.6773 40.656 75.8053 40.912 76.0613 41.04C76.3813 41.104 76.7013 41.168 77.0213 41.232C77.4693 41.232 78.1413 41.616 79.0373 42.384C79.9333 43.088 80.8293 43.984 81.7253 45.072C82.6853 46.096 83.3893 47.152 83.8373 48.24C84.3493 49.328 84.7653 50.352 85.0853 51.312C85.4053 52.272 85.4053 53.648 85.0853 55.44C85.0213 56.4 84.8613 57.36 84.6053 58.32C84.4133 59.28 84.1893 59.92 83.9333 60.24C83.5493 60.496 83.1973 60.816 82.8773 61.2C82.5573 61.584 82.3973 61.936 82.3973 62.256C82.3973 62.512 82.1413 63.056 81.6293 63.888C81.1813 64.72 80.5733 65.712 79.8053 66.864C79.1013 67.952 78.3013 69.04 77.4053 70.128C76.5733 71.216 75.7733 72.112 75.0053 72.816C74.1733 73.84 73.1813 74.8 72.0293 75.696C70.9413 76.592 69.9493 77.328 69.0533 77.904C67.3893 78.672 65.5333 79.44 63.4853 80.208C61.4373 80.912 59.4533 81.488 57.5333 81.936C55.6133 82.384 54.0453 82.576 52.8293 82.512C50.9733 82.768 49.7573 83.024 49.1813 83.28C48.6693 83.472 48.2853 84.016 48.0293 84.912C47.7093 85.744 47.3893 86.608 47.0693 87.504C46.8133 88.4 46.6853 89.008 46.6853 89.328C46.5573 89.584 46.2693 90.352 45.8213 91.632C45.3733 92.848 44.8613 94.288 44.2853 95.952C43.7733 97.552 43.2613 99.152 42.7493 100.752C42.3013 102.352 41.9493 103.696 41.6933 104.784C41.4373 105.68 40.9893 106.256 40.3493 106.512C39.7733 106.832 39.1973 106.992 38.6213 106.992ZM51.3893 76.176C51.6453 76.432 52.5413 76.464 54.0773 76.272C55.6773 76.08 57.4693 75.6 59.4533 74.832C60.7333 74.384 62.0133 73.84 63.2933 73.2C64.6373 72.56 65.9173 71.856 67.1333 71.088C67.7733 70.64 68.6053 69.968 69.6293 69.072C70.6533 68.112 71.8053 66.832 73.0853 65.232C73.2773 64.912 73.5973 64.304 74.0453 63.408C74.5573 62.448 75.0053 61.552 75.3893 60.72C75.9653 59.824 76.5413 58.512 77.1173 56.784C77.6933 54.992 77.8213 53.52 77.5013 52.368C77.1813 50.704 76.4133 49.232 75.1973 47.952C74.0453 46.672 72.6373 45.776 70.9733 45.264C69.5653 45.008 68.3813 44.88 67.4213 44.88C66.5253 44.816 65.5333 44.88 64.4453 45.072C63.4213 45.392 62.6853 45.84 62.2373 46.416C61.7893 46.992 61.1813 48.208 60.4133 50.064C59.9653 50.96 59.3253 52.272 58.4933 54C57.6613 55.664 56.9573 57.296 56.3813 58.896C55.2293 63.12 54.1413 66.48 53.1173 68.976C52.1573 71.472 51.5493 73.072 51.2933 73.776C51.3573 74.48 51.3253 74.992 51.1973 75.312C51.0693 75.568 51.1333 75.856 51.3893 76.176ZM76.1176 99.6C75.6056 99.088 75.2216 98.384 74.9656 97.488C74.7736 96.592 74.7096 95.728 74.7736 94.896C74.8376 94 74.9976 93.296 75.2536 92.784C75.2536 92.272 75.3176 91.888 75.4456 91.632C75.6376 91.312 75.7016 91.024 75.6376 90.768C75.5736 90.512 75.6376 90.064 75.8296 89.424C76.0216 88.784 76.2136 88.176 76.4056 87.6C76.8536 86.576 77.3336 85.296 77.8456 83.76C78.4216 82.224 78.9656 80.688 79.4776 79.152C79.9896 77.616 80.4056 76.304 80.7256 75.216C81.1096 74.064 81.3336 73.36 81.3976 73.104C81.3976 72.336 81.9096 71.92 82.9336 71.856C83.7016 71.6 84.4376 71.76 85.1416 72.336C85.8456 72.848 86.5176 73.616 87.1576 74.64C87.6696 75.152 87.8616 75.888 87.7336 76.848C87.6056 77.744 87.1896 78.96 86.4856 80.496C86.2296 81.008 85.9096 81.808 85.5256 82.896C85.2056 83.92 84.9816 84.816 84.8536 85.584C84.5976 86.096 84.2776 86.832 83.8936 87.792C83.5736 88.688 83.2856 89.552 83.0296 90.384C82.9016 90.704 82.7736 91.248 82.6456 92.016C82.5176 92.72 82.3576 93.456 82.1656 94.224C81.9736 94.992 81.7176 95.632 81.3976 96.144C80.8216 98.768 80.0536 100.304 79.0936 100.752C78.1976 101.2 77.2056 100.816 76.1176 99.6ZM85.9096 60.912C85.4616 60.464 85.0776 59.92 84.7576 59.28C84.4376 58.576 84.2456 57.968 84.1816 57.456C84.1816 56.88 84.2456 56.56 84.3736 56.496C84.9496 56.112 85.5256 55.376 86.1016 54.288C86.7416 53.2 87.1576 52.24 87.3496 51.408C87.4136 51.152 87.5416 50.896 87.7336 50.64C87.9256 50.32 88.1496 50.128 88.4056 50.064C89.1736 49.552 90.0696 49.552 91.0936 50.064C92.1816 50.512 93.0456 51.248 93.6856 52.272C94.2616 53.488 94.4216 54.608 94.1656 55.632C93.9096 56.656 93.2056 57.872 92.0536 59.28C91.0936 60.56 90.0376 61.328 88.8856 61.584C87.7976 61.776 86.8056 61.552 85.9096 60.912ZM119.645 98.544C118.301 98.544 117.181 98.288 116.285 97.776C115.389 97.2 114.653 96.24 114.077 94.896C113.821 93.936 113.661 92.912 113.597 91.824C113.533 90.672 113.533 89.584 113.597 88.56C113.661 87.536 113.757 86.768 113.885 86.256C114.013 86.064 114.045 85.712 113.981 85.2C113.981 84.624 113.981 84.048 113.981 83.472C113.917 82.384 113.661 81.744 113.213 81.552C112.765 81.36 112.061 81.488 111.101 81.936C109.885 82.576 108.413 83.472 106.685 84.624C104.957 85.776 103.165 87.056 101.309 88.464C99.4526 89.808 97.6286 91.248 95.8366 92.784C94.4286 94.32 93.4686 95.536 92.9566 96.432C92.5086 97.264 91.9966 97.68 91.4206 97.68C90.9086 97.936 90.3966 97.936 89.8846 97.68C89.4366 97.36 88.8926 96.944 88.2526 96.432C87.8046 95.92 87.3246 95.344 86.8126 94.704C86.3006 94.064 85.9806 93.616 85.8526 93.36C85.8526 92.72 85.9166 91.952 86.0446 91.056C86.2366 90.096 86.4926 89.136 86.8126 88.176C87.1326 87.216 87.4526 86.384 87.7726 85.68C88.0926 85.424 88.3486 85.04 88.5406 84.528C88.7966 83.952 89.1166 83.312 89.5006 82.608C89.6926 81.776 90.0446 80.752 90.5566 79.536C91.0686 78.32 91.5486 77.2 91.9966 76.176C92.8286 74.576 93.4046 73.232 93.7246 72.144C94.1086 70.992 94.3966 69.68 94.5886 68.208C94.5246 68.016 94.5566 67.792 94.6846 67.536C94.8766 67.28 95.1006 67.152 95.3566 67.152H95.4526C95.9646 66.704 96.7006 66.608 97.6606 66.864C98.6206 67.056 99.3886 67.472 99.9646 68.112C101.245 69.456 101.789 71.024 101.597 72.816C101.469 74.544 100.477 76.912 98.6206 79.92C98.1726 80.944 97.7566 81.808 97.3726 82.512C97.0526 83.152 96.8926 83.632 96.8926 83.952C96.8926 83.952 97.1806 83.76 97.7566 83.376C98.3966 82.928 99.1006 82.416 99.8686 81.84C100.701 81.264 101.373 80.816 101.885 80.496C102.205 80.176 102.909 79.6 103.997 78.768C105.149 77.936 106.365 77.072 107.645 76.176C108.925 75.28 109.917 74.704 110.621 74.448C111.261 74.064 111.965 73.68 112.733 73.296C113.565 72.912 114.109 72.72 114.365 72.72C114.941 72.72 115.645 72.976 116.477 73.488C117.373 74 118.173 74.608 118.877 75.312C119.645 75.952 120.093 76.528 120.221 77.04C120.221 77.296 120.221 77.584 120.221 77.904C120.221 78.224 120.253 78.512 120.317 78.768C120.381 79.728 120.413 80.912 120.413 82.32C120.477 83.728 120.477 85.104 120.413 86.448C120.349 87.728 120.189 88.688 119.933 89.328C119.933 89.328 119.933 89.392 119.933 89.52C119.997 89.648 120.125 89.744 120.317 89.808C120.253 90 120.221 90.16 120.221 90.288C120.285 90.352 120.317 90.384 120.317 90.384C120.189 90.576 120.157 90.928 120.221 91.44C120.349 91.952 120.573 92.496 120.893 93.072C121.213 93.648 121.533 94.256 121.853 94.896C122.237 95.664 122.173 96.432 121.661 97.2C121.213 97.904 120.541 98.352 119.645 98.544ZM121.862 119.28C121.03 119.664 120.166 119.536 119.27 118.896C118.438 118.256 117.798 117.328 117.35 116.112C116.966 114.96 116.998 113.744 117.446 112.464C117.574 112.08 117.766 111.44 118.022 110.544C118.278 109.712 118.438 108.976 118.502 108.336C118.566 107.888 118.758 107.12 119.078 106.032C119.398 105.008 119.75 103.984 120.134 102.96C120.582 101.936 120.934 101.2 121.19 100.752C121.574 100.112 121.83 99.376 121.958 98.544C122.15 97.712 122.246 97.072 122.246 96.624C122.374 96.176 122.534 95.664 122.726 95.088C122.982 94.512 123.238 94.064 123.494 93.744C123.622 93.232 123.814 92.688 124.07 92.112C124.326 91.472 124.614 90.928 124.934 90.48C125.062 90.032 125.158 89.488 125.222 88.848C125.35 88.208 125.542 87.856 125.798 87.792C125.862 87.536 125.894 87.28 125.894 87.024C125.958 86.768 126.086 86.416 126.278 85.968C126.406 85.264 126.694 84.24 127.142 82.896C127.59 81.552 128.134 80.08 128.774 78.48C129.478 76.624 129.862 74.928 129.926 73.392C130.054 71.856 129.638 70.896 128.678 70.512C128.166 70.256 127.846 69.776 127.718 69.072C127.59 68.368 127.654 67.664 127.91 66.96C128.166 66.192 128.55 65.712 129.062 65.52C129.638 65.264 130.278 65.168 130.982 65.232C131.75 65.232 132.422 65.296 132.998 65.424C133.638 65.488 133.926 65.584 133.862 65.712C133.862 66.032 134.022 66.224 134.342 66.288C134.47 66.096 134.726 66.32 135.11 66.96C135.558 67.6 135.974 68.336 136.358 69.168C136.742 70 136.934 70.576 136.934 70.896C136.806 71.152 136.742 71.312 136.742 71.376C136.742 71.376 136.87 71.376 137.126 71.376C137.126 71.376 137.478 71.216 138.182 70.896C138.886 70.512 139.622 70.096 140.39 69.648C141.222 69.136 141.766 68.752 142.022 68.496C142.022 68.496 142.182 68.432 142.502 68.304C142.886 68.112 143.206 67.888 143.462 67.632C144.742 67.12 146.118 67.024 147.59 67.344C149.126 67.664 150.342 68.24 151.238 69.072C152.518 70.672 153.318 72.432 153.638 74.352C153.958 76.272 153.67 78.352 152.774 80.592C152.646 80.912 152.358 81.456 151.91 82.224C151.526 82.928 151.142 83.6 150.758 84.24C150.374 84.816 150.182 85.104 150.182 85.104C148.71 87.408 147.014 89.328 145.094 90.864C143.238 92.4 141.286 93.744 139.238 94.896C138.598 95.344 137.83 95.728 136.934 96.048C136.102 96.304 135.334 96.496 134.63 96.624C133.926 96.752 133.478 96.752 133.286 96.624C132.582 96.112 131.942 95.024 131.366 93.36C131.046 94.192 130.726 95.024 130.406 95.856C130.15 96.624 129.99 97.136 129.926 97.392C129.862 97.84 129.798 98.224 129.734 98.544C129.67 98.8 129.51 99.024 129.254 99.216C129.254 99.216 129.222 99.344 129.158 99.6C129.094 99.856 128.87 100.24 128.486 100.752C127.846 102.608 127.27 104.144 126.758 105.36C126.31 106.576 125.958 107.6 125.702 108.432C125.446 109.264 125.222 110.064 125.03 110.832C124.902 112.56 124.518 114.32 123.878 116.112C123.238 117.904 122.566 118.96 121.862 119.28ZM134.63 90.096C134.886 89.968 135.398 89.68 136.166 89.232C136.934 88.72 137.798 88.144 138.758 87.504C139.718 86.8 140.614 86.128 141.446 85.488C142.342 84.848 142.95 84.336 143.27 83.952C143.782 83.376 144.166 82.832 144.422 82.32C144.678 81.808 144.934 81.136 145.19 80.304C145.382 79.792 145.606 79.216 145.862 78.576C146.118 77.936 146.342 77.328 146.534 76.752C146.79 76.24 146.886 75.728 146.822 75.216C146.822 74.64 146.63 74.16 146.246 73.776C145.99 73.712 145.286 73.84 144.134 74.16C143.046 74.48 141.798 75.088 140.39 75.984C139.046 76.816 137.798 77.968 136.646 79.44C135.302 81.168 134.374 82.864 133.862 84.528C133.35 86.128 133.158 87.472 133.286 88.56C133.478 89.584 133.926 90.096 134.63 90.096ZM160.256 99.696C158.912 99.952 157.984 99.984 157.472 99.792C156.96 99.536 156.352 99.088 155.648 98.448C154.624 97.936 153.728 97.264 152.96 96.432C152.256 95.536 151.712 94.64 151.328 93.744C151.008 92.784 150.88 92.016 150.944 91.44C151.136 89.2 151.648 86.8 152.48 84.24C153.376 81.616 154.496 79.088 155.84 76.656C157.184 74.224 158.656 72.112 160.256 70.32C161.856 68.464 163.52 67.184 165.248 66.48C166.528 65.968 167.808 65.776 169.088 65.904C170.432 66.032 171.36 66.64 171.872 67.728C172.832 69.584 172.608 70.768 171.2 71.28C171.008 71.28 170.784 71.376 170.528 71.568C170.272 71.696 170.144 71.888 170.144 72.144C170.4 72.272 171.104 72.304 172.256 72.24C173.408 72.112 174.56 71.92 175.712 71.664C176.928 71.344 177.728 71.024 178.112 70.704C178.496 70.512 178.784 70.416 178.976 70.416C179.168 70.416 179.648 70.48 180.416 70.608C181.504 70.928 182.048 71.312 182.048 71.76C182.048 72.016 182.144 72.336 182.336 72.72C182.528 73.104 182.752 73.296 183.008 73.296C183.456 73.36 183.488 73.744 183.104 74.448C182.72 75.088 181.888 75.856 180.608 76.752C179.392 77.52 178.624 78.032 178.304 78.288C178.048 78.48 178.016 78.928 178.208 79.632C178.72 80.848 178.72 82.288 178.208 83.952C177.696 85.616 176.8 87.344 175.52 89.136C174.304 90.864 172.832 92.496 171.104 94.032C169.376 95.504 167.552 96.784 165.632 97.872C163.776 98.896 161.984 99.504 160.256 99.696ZM159.584 93.648C159.84 93.648 160.288 93.52 160.928 93.264C161.568 92.944 162.08 92.688 162.464 92.496C162.72 92.24 163.04 91.952 163.424 91.632C163.872 91.248 164.224 91.024 164.48 90.96C164.736 90.96 164.96 90.864 165.152 90.672C165.408 90.416 165.792 89.936 166.304 89.232C166.88 88.464 167.744 87.344 168.896 85.872C170.176 84.464 171.072 83.248 171.584 82.224C172.16 81.2 172.288 80.176 171.968 79.152C171.904 78.896 171.712 78.736 171.392 78.672C171.136 78.608 170.784 78.448 170.336 78.192C169.696 78.192 169.184 78.192 168.8 78.192C168.416 78.128 167.872 77.808 167.168 77.232L165.632 75.312L164 76.944C162.976 77.968 161.984 79.376 161.024 81.168C160.064 82.896 159.264 84.688 158.624 86.544C158.048 88.4 157.696 89.936 157.568 91.152C157.504 92.112 157.664 92.752 158.048 93.072C158.432 93.392 158.944 93.584 159.584 93.648ZM179.688 98.064C179.432 98.064 179.016 97.936 178.44 97.68C177.864 97.36 177.576 97.2 177.576 97.2C177.576 96.944 177.48 96.624 177.288 96.24C177.16 95.856 177.096 95.536 177.096 95.28C176.648 95.024 176.296 94.704 176.04 94.32C175.784 93.872 175.784 93.296 176.04 92.592C176.424 91.952 176.936 90.928 177.576 89.52C178.216 88.048 178.92 86.448 179.688 84.72C180.456 82.928 181.16 81.2 181.8 79.536C182.504 77.808 183.08 76.336 183.528 75.12C184.04 73.904 184.328 73.168 184.392 72.912C184.392 72.656 184.456 72.272 184.584 71.76C184.712 71.248 185.032 70.8 185.544 70.416C186.184 69.968 186.856 69.968 187.56 70.416C188.328 70.8 188.968 71.504 189.48 72.528C189.992 73.552 190.248 74.704 190.248 75.984C190.248 76.432 189.928 77.584 189.288 79.44C188.648 81.232 187.784 83.376 186.696 85.872C185.672 88.368 184.52 90.896 183.24 93.456C182.28 95.312 181.608 96.56 181.224 97.2C180.904 97.776 180.392 98.064 179.688 98.064ZM193.224 61.488C192.456 61.488 191.592 61.168 190.632 60.528C189.736 59.824 188.904 58.992 188.136 58.032C187.432 57.008 187.08 55.952 187.08 54.864C187.08 54.544 187.304 54.032 187.752 53.328C188.264 52.624 188.744 51.92 189.192 51.216C189.704 50.512 189.96 50.096 189.96 49.968C190.472 49.968 190.952 50.032 191.4 50.16C191.912 50.224 192.392 50.384 192.84 50.64C193.544 52.24 194.44 53.584 195.528 54.672C196.616 55.76 197.16 56.816 197.16 57.84C197.16 59.248 196.904 60.208 196.392 60.72C195.944 61.232 194.888 61.488 193.224 61.488ZM192.783 98.256C192.527 98.256 192.047 98.064 191.343 97.68C190.639 97.232 190.159 96.88 189.903 96.624C189.455 96.112 189.167 95.568 189.039 94.992C188.911 94.416 188.847 93.232 188.847 91.44C188.847 89.392 189.263 87.152 190.095 84.72C190.927 82.224 192.335 78.8 194.319 74.448L197.871 67.056C198.191 66.608 198.447 66.224 198.639 65.904C198.895 65.584 199.151 65.296 199.407 65.04C199.599 65.04 199.791 65.04 199.983 65.04C200.239 65.04 200.367 65.04 200.367 65.04C200.943 65.104 201.647 65.456 202.479 66.096C203.375 66.672 203.951 67.472 204.207 68.496C204.207 69.328 204.079 70.256 203.823 71.28C203.567 72.24 202.799 73.616 201.519 75.408C201.007 76.112 200.431 77.2 199.791 78.672C199.215 80.08 198.767 81.36 198.447 82.512C198.383 82.576 198.223 82.864 197.967 83.376C197.775 83.824 197.551 84.336 197.295 84.912C197.039 85.424 196.847 85.84 196.719 86.16L196.335 87.696L201.615 82.32C204.559 79.376 206.991 77.296 208.911 76.08C210.831 74.8 212.399 74.256 213.615 74.448C214.895 74.64 215.919 75.472 216.687 76.944C217.135 77.584 217.455 78.224 217.647 78.864C217.903 79.504 218.063 80.304 218.127 81.264C218.191 82.16 218.127 83.44 217.935 85.104V90.768C219.023 90.512 219.855 90.288 220.431 90.096C221.071 89.84 221.711 89.584 222.351 89.328C222.863 89.136 223.439 88.976 224.079 88.848C224.783 88.656 225.647 88.528 226.671 88.464C226.607 89.296 226.287 90.256 225.711 91.344C225.135 92.368 224.399 93.392 223.503 94.416C222.671 95.44 221.775 96.272 220.815 96.912C219.855 97.552 218.927 97.872 218.031 97.872C217.199 97.872 216.239 97.552 215.151 96.912C214.127 96.208 213.295 95.184 212.655 93.84C212.399 93.072 212.207 92.24 212.079 91.344C211.951 90.384 211.887 89.008 211.887 87.216V83.376C211.887 82.672 211.695 82.384 211.311 82.512C210.991 82.64 210.735 82.8 210.543 82.992C209.903 83.44 208.975 84.272 207.759 85.488C206.543 86.64 205.327 87.888 204.111 89.232C201.167 92.304 198.703 94.576 196.719 96.048C194.799 97.52 193.487 98.256 192.783 98.256ZM231.097 101.712C230.393 101.584 229.657 101.2 228.889 100.56C228.121 99.856 227.417 99.088 226.777 98.256C226.201 97.36 225.817 96.592 225.625 95.952C225.625 95.824 225.529 95.664 225.337 95.472C225.209 95.28 225.145 95.184 225.145 95.184C224.889 94.992 224.729 94.16 224.665 92.688C224.665 91.152 224.761 89.456 224.953 87.6C225.145 85.744 225.369 84.272 225.625 83.184C225.945 82.16 226.425 80.784 227.065 79.056C227.705 77.264 228.249 75.664 228.697 74.256L231.289 68.688L227.449 67.632C227.001 67.504 226.617 67.248 226.297 66.864C226.041 66.48 225.913 66.16 225.913 65.904C225.913 65.392 226.201 64.72 226.777 63.888C227.353 63.056 227.769 62.64 228.025 62.64C228.345 62.704 228.921 62.736 229.753 62.736C230.649 62.736 231.513 62.704 232.345 62.64C233.177 62.576 233.689 62.512 233.881 62.448C234.137 62.32 234.393 62.16 234.649 61.968C234.905 61.712 235.097 61.36 235.225 60.912C235.545 60.208 235.833 59.6 236.089 59.088C236.345 58.576 236.697 57.936 237.145 57.168C237.593 56.336 237.945 55.632 238.201 55.056C238.521 54.48 239.001 53.68 239.641 52.656C239.961 52.208 240.313 51.664 240.697 51.024C241.081 50.384 241.561 49.84 242.137 49.392C242.713 48.88 243.449 48.592 244.345 48.528C245.305 48.4 246.265 48.752 247.225 49.584C247.737 50.224 248.025 50.768 248.089 51.216C248.153 51.664 247.897 52.336 247.321 53.232C246.809 54.32 246.201 55.376 245.497 56.4C244.857 57.36 244.249 58.384 243.673 59.472C242.649 60.88 242.457 61.68 243.097 61.872C243.737 62.064 245.529 61.936 248.473 61.488C250.329 61.168 251.673 61.296 252.505 61.872C253.337 62.448 253.817 63.28 253.945 64.368C254.137 65.904 253.977 66.832 253.465 67.152C252.953 67.472 251.481 67.632 249.049 67.632C247.513 67.888 246.201 68.048 245.113 68.112C244.025 68.112 243.225 68.112 242.713 68.112C241.881 68.176 241.337 68.208 241.081 68.208C240.825 68.208 240.441 68.272 239.929 68.4C239.417 68.528 239.033 68.752 238.777 69.072C238.585 69.328 238.361 69.712 238.105 70.224C237.849 70.48 237.465 71.152 236.953 72.24C236.441 73.328 235.801 74.512 235.033 75.792C234.137 78.48 233.369 81.104 232.729 83.664C232.153 86.224 231.641 88.752 231.193 91.248C231.001 92.656 231.033 93.648 231.289 94.224C231.609 94.8 232.441 95.152 233.785 95.28C234.489 95.344 235.577 95.344 237.049 95.28C238.521 95.152 239.705 94.96 240.601 94.704C241.305 94.384 242.041 94.064 242.809 93.744C243.577 93.36 244.281 92.976 244.921 92.592C245.497 92.272 246.073 91.952 246.649 91.632C247.225 91.248 247.513 91.056 247.513 91.056C247.833 90.544 248.217 90.512 248.665 90.96C249.177 91.344 249.561 91.92 249.817 92.688C249.817 93.456 249.657 94.32 249.337 95.28C249.017 96.176 247.833 97.2 245.785 98.352C242.905 100.144 240.153 101.232 237.529 101.616C234.905 102 232.761 102.032 231.097 101.712Z" fill="white"/>
<path fill-rule="evenodd" clip-rule="evenodd" d="M126.223 119.498C135.389 119.498 142.819 117.649 142.819 115.367C142.819 114.487 141.712 113.67 139.826 113C144.547 113.826 147.561 115.084 147.561 116.494C147.561 118.982 138.159 121 126.561 121C114.963 121 105.561 118.982 105.561 116.494C105.561 115.223 108.012 114.076 111.953 113.256C110.475 113.874 109.626 114.596 109.626 115.367C109.626 117.649 117.057 119.498 126.223 119.498Z" fill="white"/>
<path fill-rule="evenodd" clip-rule="evenodd" d="M126.602 125.31C139.041 125.31 149.126 123.23 149.126 120.663C149.126 119.672 147.623 118.754 145.063 118C151.47 118.93 155.561 120.345 155.561 121.93C155.561 124.73 142.802 127 127.061 127C111.321 127 98.5614 124.73 98.5614 121.93C98.5614 120.501 101.887 119.21 107.236 118.288C105.23 118.983 104.078 119.795 104.078 120.663C104.078 123.23 114.162 125.31 126.602 125.31Z" fill="white"/>
</svg>
